<?xml version="1.0" encoding="utf-8"?>
<!-- Generator: Adobe Illustrator 22.1.0, SVG Export Plug-In . SVG Version: 6.00 Build 0)  -->
<svg version="1.1" id="Artwork" xmlns="http://www.w3.org/2000/svg" xmlns:xlink="http://www.w3.org/1999/xlink" x="0px" y="0px"
	 viewBox="0 0 24 24" enable-background="new 0 0 24 24" xml:space="preserve">
<rect fill="#E5F5FA" width="24" height="24"/>
<path fill="#FFFFFF" d="M22,13.8v-3.5h-2.6c-0.2-0.8-0.5-1.6-0.9-2.3l1.8-1.8l-2.5-2.5L16,5.5c-0.7-0.4-1.4-0.7-2.2-0.9V2h-3.5v2.6
	C9.4,4.8,8.6,5.1,8,5.5L6.2,3.7L3.7,6.2L5.5,8c-0.4,0.7-0.8,1.5-0.9,2.3H2v3.5h2.6c0.2,0.8,0.5,1.6,0.9,2.2l-1.8,1.8l2.5,2.5L8,18.5
	c0.7,0.4,1.4,0.7,2.2,0.9V22h3.5v-2.6c0.8-0.2,1.6-0.5,2.2-0.9l1.8,1.8l2.5-2.5L18.5,16c0.4-0.7,0.8-1.4,1-2.3H22z M12,18.6
	c-3.6,0-6.6-3-6.6-6.6s3-6.6,6.6-6.6s6.6,3,6.6,6.6S15.6,18.6,12,18.6z"/>
<polygon fill="#9A2324" points="22,20 20.2,20 14.4,19 12,4 6.7,19 5,20 2,20 2,21 5,21 6.7,20 12,12 14.4,20 20.2,21 22,21 "/>
</svg>
